<svg xmlns="http://www.w3.org/2000/svg" width="250" height="140.625" viewBox="0 0 250 140.625">
 <g id="Group_8316" transform="translate(-8969 9583)">
	<rect id="Rectangle_4186" x="8427" y="-9663.5" fill="#FFFFFF" fill-opacity="0" width="250" height="140.6"/>
</g>
<g>
	<path fill="#231F20" d="M140.1,102.2c0-2.3-1.3-1.5-1.3-2.1c0-0.1,0.1-0.2,0.2-0.2c0.2,0,0.4,0,0.7,0c0.3,0,0.6,0,1.2,0
		c0.4,0,0.2,0.1,0.5,0.3l4.8,5.3c0.1,0.2,0.3,0.3,0.4,0.3c0.1,0,0.1-0.1,0.1-0.4v-4c0-1.1-1.5-0.9-1.5-1.3c0-0.1,0-0.2,0.2-0.2
		c0.2,0,0.5,0,1.4,0c0.7,0,1.2,0,1.3,0c0.2,0,0.2,0.1,0.2,0.2c0,0.4-1,0.1-1,1.3v6.7c0,0.3,0,0.4-0.1,0.4c-0.2,0-0.2-0.1-0.3-0.2
		L141,102c-0.1-0.1-0.2-0.2-0.2-0.2c-0.1,0-0.1,0.1-0.1,0.2v4.1c0,2.3,1.5,1.5,1.5,2c0,0.2-0.3,0.2-0.5,0.2c-0.6,0-1,0-1.4,0
		c-0.4,0-0.7,0-1,0c-0.1,0-0.4,0.1-0.4-0.1c0-0.5,1.1-0.3,1.1-1.5V102.2"/>
	<path fill="#231F20" d="M159.3,104c0,2.4-0.7,4.5-3.9,4.5c-2.2,0-3.4-1-3.4-3.4v-3.9c0-1-1.2-0.6-1.2-1.1c0-0.2,0.2-0.2,0.2-0.2
		c0.2,0,1,0,1.6,0c0.6,0,1.5,0,1.7,0c0.1,0,0.1,0.1,0.1,0.2c0,0.4-1-0.2-1,1.7v2.6c0,1.8,0.5,3.4,2.6,3.4c2.4,0,2.7-1.9,2.7-3.9
		v-2.4c0-1.4-1.5-1-1.5-1.4c0-0.2,0.2-0.1,0.4-0.1c0.3,0,0.7,0,1,0c0.4,0,0.8,0,1.4,0c0.1,0,0.2,0,0.2,0.2c0,0.3-0.8-0.1-0.8,1.2
		V104"/>
	<path fill="#231F20" d="M165.4,101.2c0-0.6-0.1-0.6-0.6-0.6h-1c-1.3,0-1,1.6-1.5,1.6c-0.2,0-0.2-0.3-0.1-0.4l0.2-1.6
		c0-0.1,0-0.3,0.2-0.3c1.1,0,1.9,0,3.6,0c1.7,0,2.5,0,3.6,0c0.2,0,0.2,0.2,0.2,0.3l0.1,1.1c0,0.1,0.1,0.6-0.2,0.6
		c-0.5,0-0.1-1.3-1.5-1.3h-1c-0.5,0-0.6,0.1-0.6,0.6v5.4c0,1.5,1.5,1.1,1.5,1.5c0,0.3-0.2,0.2-0.6,0.2c-0.5,0-0.9,0-1.7,0
		s-1.2,0-1.7,0c-0.2,0-0.4,0-0.4-0.2c0-0.5,1.3,0.1,1.3-1.3V101.2"/>
	<path fill="#231F20" d="M186.6,106.9c0,1.5,1.3,0.9,1.3,1.3c0,0.1-0.1,0.2-0.4,0.2c-0.4,0-0.9,0-1.8,0c-0.5,0-1,0-1.3,0
		c-0.1,0-0.1-0.1-0.1-0.1c0-0.4,0.9-0.1,0.9-1.2v-5.7c0-1.1-1.3-0.8-1.3-1.2c0-0.2,0.3-0.2,0.4-0.2c0.5,0,0.9,0,1.3,0
		c0.4,0,0.8,0,1.5,0c0.4,0,0.4,0,0.4,0.2c0,0.4-0.9,0-0.9,1.1V106.9"/>
	<path fill="#231F20" d="M194.5,106.6c0,0.7-0.1,1.2,0.8,1.2c2.9,0,2.8-1.6,3.2-1.6c0,0,0.1,0,0.1,0.3c0,0.9-0.7,1.9-1.7,1.9
		c-1.8,0-2.5,0-3.1,0c-0.4,0-0.9,0-1.5,0c-0.2,0-0.2-0.1-0.2-0.1c0-0.6,0.9,0.1,0.9-1.4v-5.7c0-1-1.3-0.7-1.3-1.1
		c0-0.1,0.1-0.2,0.4-0.2c0.5,0,1.2,0,1.6,0c1,0,1.1,0,1.3,0c0.3,0,0.3,0,0.3,0.2c0,0.4-0.8,0-0.8,0.9V106.6"/>
	<path fill="#231F20" d="M204.2,106.9c0,1.5,1.3,0.9,1.3,1.3c0,0.1-0.1,0.2-0.4,0.2c-0.4,0-0.9,0-1.8,0c-0.5,0-1,0-1.3,0
		c-0.1,0-0.1-0.1-0.1-0.1c0-0.4,0.9-0.1,0.9-1.2v-5.7c0-1.1-1.3-0.8-1.3-1.2c0-0.2,0.3-0.2,0.4-0.2c0.5,0,0.9,0,1.3,0
		c0.4,0,0.9,0,1.5,0c0.4,0,0.4,0,0.4,0.2c0,0.4-0.9,0-0.9,1.1V106.9"/>
	<path fill="#231F20" d="M211.8,101.2c0-0.6-0.1-0.6-0.6-0.6h-1c-1.3,0-1,1.6-1.5,1.6c-0.2,0-0.2-0.3-0.1-0.4l0.2-1.6
		c0-0.1,0-0.3,0.2-0.3c1.1,0,1.9,0,3.6,0c1.7,0,2.5,0,3.6,0c0.2,0,0.2,0.2,0.2,0.3l0.1,1.1c0,0.1,0.1,0.6-0.2,0.6
		c-0.5,0-0.1-1.3-1.5-1.3h-1c-0.5,0-0.6,0.1-0.6,0.6v5.4c0,1.5,1.5,1.1,1.5,1.5c0,0.3-0.2,0.2-0.6,0.2c-0.5,0-0.9,0-1.7,0
		c-0.8,0-1.2,0-1.7,0c-0.2,0-0.4,0-0.4-0.2c0-0.5,1.3,0.1,1.3-1.3V101.2"/>
	<path fill="#231F20" d="M222,102.9c0,0.5,0,0.6,0.5,0.6h1c1,0,1.1-1.1,1.3-1.1c0.1,0,0.2,0,0.2,0.3l0.1,2.1c0,0.2,0.1,0.6-0.2,0.6
		c-0.4,0-0.1-1.3-1.3-1.3h-1.1c-0.6,0-0.5,0.1-0.5,0.8v1.5c0,0.7,0.2,1.2,1,1.2c2.9,0,2.8-1.6,3.2-1.6c0,0,0.1,0,0.1,0.3
		c0,0.9-0.7,1.9-1.7,1.9c-1.8,0-2.8,0-3.3,0c-0.4,0-0.9,0-1.5,0c-0.1,0-0.2-0.1-0.2-0.1c0-0.6,0.9,0.1,0.9-1.4v-5.6
		c0-1.1-1.3-0.7-1.3-1.2c0-0.1,0.1-0.2,0.3-0.2c0.5,0,1.3,0,3.2,0c0.8,0,1.9,0,2.9,0c0.2,0,0.2,0.1,0.2,0.2l0.1,1.2
		c0,0.2,0.1,0.5-0.2,0.5c-0.6,0,0.4-1.4-1.9-1.4c-1.4,0-1.7,0-1.7,0.8V102.9"/>
	<path fill="#231F20" d="M181.1,108c-0.6-0.4-1.7-1.8-2.3-2.6c-0.5-0.6-0.7-0.7-0.7-0.7c3.4-1.1,2.8-5.1-1.5-4.8
		c-0.8,0.1-1.6,0-2.4,0c-0.7,0-0.8,0-1.4,0c-0.1,0-0.3,0.1-0.3,0.2c0,0.4,1.3,0,1.3,1.3v5.3c0,1.5-1,1.1-1,1.5
		c0,0.2,0.2,0.2,0.4,0.2c0.6,0,1.2,0,1.8,0c0.5,0,0.8,0,1,0c0.3,0,0.4-0.1,0.4-0.2c0-0.4-1.2,0.1-1.2-1.2v-1.5l0,0v-0.7c0,0,0,0,0,0
		v-1.8l0,0v-1.8c0-0.7,0.3-0.6,0.8-0.6c0.3,0,1.1,0,1.1,0c1,0,1.8,0.8,1.8,1.8c0,0.9-0.7,1.7-1.6,1.8c-0.3,0.1-0.6,0.1-0.9,0.1
		c-0.2,0-0.3,0.1-0.3,0.3c0,0.2,0.1,0.2,0.2,0.3c0.5,0.1,2.2,3.4,3.5,3.8c0.7,0.2,1.8,0,1.8-0.3C181.8,108,181.3,108.1,181.1,108"/>
	<path fill="#231F20" d="M227.5,100.1v1.3h-0.2v-1.3h-0.5v-0.2h1.1v0.2H227.5 M229.6,101.4v-1.3h0l-0.5,1.3h-0.1l-0.5-1.3h0v1.3
		h-0.2v-1.6h0.4l0.4,1.2l0.4-1.2h0.4v1.6H229.6z"/>
	<rect x="124.6" y="98.7" fill="#006225" width="10.8" height="10.5"/>
	<polyline fill="#8BC53F" points="124.6,109.2 124.6,98.7 135.3,98.7 124.6,109.2 	"/>
	<path fill="#FFFFFF" d="M130.9,103.3c0.4,0.1,1.2,0.1,1.9-0.3c0.8-0.5,1.1-1.5,1.2-1.7c0,0,0.1,0,0,0c0,0,0,0,0,0s-1.2-0.3-2.1,0.2
		c-0.5,0.3-0.9,0.9-1,1.3c-0.1,0.2-0.1,0.3-0.1,0.4c-0.5,0.4-0.9,0.8-1.3,1.2c0-0.1,0.1-0.2,0.1-0.3c0.2-0.2,0.9-0.8,1-1.7
		c0.1-1-0.6-2-0.6-2s-1,0.7-1.1,1.7c-0.1,0.8,0.3,1.5,0.5,1.8c0,0.1,0.1,0.1,0.1,0.1c-0.1,0.2-0.1,0.4-0.3,0.5l0,0v0
		c-0.6,0.5-1.1,1-1.6,1.3c0-0.1,0.1-0.2,0.1-0.3c0.2-0.2,0.9-0.9,1-1.8c0.1-1.1-0.7-2-0.7-2s-1,0.8-1,1.8c-0.1,0.9,0.5,1.7,0.7,1.9
		c-0.1,0.2-0.2,0.4-0.4,0.5l0,0l0,0c-0.4,0.2-0.7,0.3-1.1,0.3l0,0l0,0.1l0,0c0.5,0,0.9-0.2,1.4-0.5c0.1-0.1,0.3-0.1,0.5-0.1
		c0,0,0.1,0.1,0.1,0.1c0.2,0.3,0.8,0.9,1.6,1c1,0.2,2-0.5,2-0.5s-0.7-1-1.7-1.2c-0.7-0.1-1.3,0.1-1.7,0.3c-0.1,0-0.2,0.1-0.2,0.1
		c-0.1,0-0.2,0-0.3,0.1c0.5-0.3,0.9-0.8,1.4-1.2l0,0l0,0c0.2-0.1,0.4-0.2,0.7-0.2c0,0,0,0,0,0.1c0.2,0.3,0.8,0.9,1.6,1.1
		c1,0.2,2-0.4,2-0.4s-0.7-1-1.7-1.2c-0.9-0.2-1.7,0.3-2,0.4c-0.2,0-0.3,0.1-0.4,0.1C129.8,104.1,130.3,103.7,130.9,103.3
		C130.8,103.3,130.8,103.3,130.9,103.3"/>
	<path fill="#8BC53F" d="M129.6,103c0-1.4,0.3-2.4,0.3-2.4l0,0C129.6,101.4,129.5,102.3,129.6,103c-0.1,0.4-0.1,0.7-0.2,1
		c0,0,0.1-0.1,0.1-0.2C129.6,103.5,129.6,103.3,129.6,103"/>
	<path fill="#006225" d="M130.1,104.3c0,0-0.1,0-0.2,0.1c0,0,0,0,0,0c1.2-0.1,3,0.5,3.3,0.7c-0.3-0.1-1.1-0.5-1.9-0.6
		C130.8,104.4,130.4,104.3,130.1,104.3"/>
	<path fill="#006225" d="M131.3,106.7c-0.1,0-1.8-0.7-3.2-0.7c0,0-0.1,0-0.1,0c0,0,0,0,0,0C129.4,105.9,131.4,106.7,131.3,106.7
		L131.3,106.7"/>
	<path fill="#006225" d="M133.8,101.4C133.8,101.4,133.8,101.4,133.8,101.4c-1.1,0.4-2,0.9-2.8,1.6c0,0-0.1,0.1-0.1,0.2
		c0.1-0.1,0.2-0.1,0.3-0.2C132.1,102.2,133,101.7,133.8,101.4"/>
	<path fill="#8BC53F" d="M127.8,102.2L127.8,102.2c-0.3,0.8-0.3,1.6-0.3,2.3c0,0.3,0,0.6,0,0.9c0,0.1,0,0.1,0,0.2c0,0,0,0,0,0
		c0.1-0.3,0.1-0.7,0.1-1C127.6,102.9,127.8,102.2,127.8,102.2"/>
	<path fill="#231F20" d="M96.2,100.3c0-0.8-0.7-0.3-0.7-0.7c0-0.3,0.5-0.1,1.6-0.8c0.1,0,0.1-0.1,0.2-0.1c0.1,0,0.1,0.2,0.1,0.3v4
		c0.4-0.4,0.9-0.7,1.5-0.7c1.1,0,1.8,1,1.8,2c0,1.8-1,2.8-2.4,2.8c-1,0-1.3-0.5-1.5-0.5c-0.2,0-0.3,0.5-0.5,0.5
		c-0.1,0-0.1-0.1-0.1-0.1c0-0.1,0.1-0.3,0.1-0.9V100.3z M99.6,106c0.1-0.3,0.1-0.6,0.1-0.9c0-0.8-0.4-2.1-1.5-2.1
		c-0.3,0-0.8,0.2-0.8,0.6v2c0,0.9,0.8,1.1,1.2,1.1C99.1,106.7,99.4,106.4,99.6,106"/>
	<path fill="#231F20" d="M102,103.2c-0.2-0.5-0.6-0.4-0.6-0.6c0-0.2,0.2-0.2,0.4-0.2c0.2,0,0.4,0,0.9,0c0.6,0,0.8,0,1,0
		c0.2,0,0.3,0,0.3,0.1c0,0.3-0.6,0.2-0.6,0.6c0,0.1,0.1,0.3,0.2,0.5l0.9,1.8c0.1,0.2,0.1,0.3,0.2,0.3c0.1,0,0.1-0.2,0.2-0.3l0.5-1.4
		c0.1-0.3,0.2-0.6,0.2-0.7c0-0.7-0.7-0.5-0.7-0.8c0-0.2,0.2-0.2,0.4-0.2c0.1,0,0.3,0,0.6,0c0.3,0,0.5,0,0.6,0c0.1,0,0.3,0,0.3,0.1
		c0,0.2-0.4,0.3-0.6,0.6l-2.4,6c0,0.1-0.1,0.2-0.2,0.2h-0.5c-0.1,0-0.1,0-0.1-0.1c0-0.1,0-0.2,0.1-0.3l0.7-1.1
		c0.2-0.3,0.3-0.5,0.3-0.6c0-0.1-0.1-0.3-0.3-0.7L102,103.2z"/>
</g>
<g>
	<path fill="#8BC53F" d="M112.1,110.1c-1.2-23.7,22.4-35,22.3-55.7c0-1.3-0.1-2.7-0.3-4.1h0.2c1.8,4.6,2.6,8.7,2.6,12.3
		c0,19.9-22.9,26.6-24.6,47.5H112.1z"/>
	<path fill="#8BC53F" d="M115.2,49.6c-2.7,2.4-5.3,8.1-5.3,14.3c0,6.1,2.5,12.6,10.2,16.7l0.2-0.2c0.6-7.2-7-11.8-7-21.5
		c0-2.7,0.6-5.7,2-9.3H115.2z"/>
	<path fill="#006225" d="M126.3,64.1c0,2.1-1.4,3.8-3.1,3.8c-1.7,0-3.1-1.7-3.1-3.8c0-2.1,1.4-3.8,3.1-3.8
		C124.8,60.3,126.3,62,126.3,64.1"/>
</g>
<path fill="#5F604B" d="M74.9,62.1c0,5.8-4.5,10.2-10.3,10.2c-5.6,0-10.2-4.6-10.2-10.1c0-5.6,4.5-10.2,10.2-10.2
	C70.4,51.9,74.9,56.3,74.9,62.1z M57.6,62.1c0,3.8,3,7.2,7,7.2c4.1,0,7.3-3.1,7.3-7.2c0-4.1-3.2-7.2-7.3-7.2
	C60.6,54.9,57.6,58.2,57.6,62.1z M148.7,60.6V37h-3.2v34.9h3.2V61.2l10.5,10.6h4.5l-11-11.1l8.2-8.5h-4.2L148.7,60.6 M186.2,67.3
	c-1,1.8-3.7,5-9,5c-5.5,0-10-4.6-10-10.2c0-5.5,4.4-10.1,10.2-10.1c5.9,0,10.1,4.5,10.1,9.9v1.2h-17.1c0.3,3,2.8,6.3,6.9,6.3
	c3.7,0,5.7-2.4,6.3-3.6L186.2,67.3z M184.4,60.5c-0.5-2.7-3.2-5.6-7.1-5.6c-3.7,0-6.3,2.9-6.8,5.6H184.4z M192.2,52.3l9.6,19.9
	l-4.7,11.1h3.3l13.1-30.9h-3.3l-6.8,16l-7.6-16H192.2z M27.3,37h3.2v17.9h0.1c0.8-0.9,3-3,6.9-3c6,0,10.3,4.6,10.3,10.2
	c0,5.5-4.2,10.2-10.4,10.2c-5.3,0-10.1-4.3-10.1-10.8C27.3,56,27.3,37,27.3,37z M44.7,62.1c0-3.8-2.9-7.2-7.3-7.2c-4,0-7,3.4-7,7.1
	c0,3.9,3,7.3,7,7.3C41.6,69.3,44.7,66,44.7,62.1z M101.9,61.5c0,6.5-4.8,10.8-10.1,10.8c-6.2,0-10.4-4.7-10.4-10.2
	c0-5.6,4.3-10.2,10.3-10.2c3.9,0,6.1,2.1,6.9,3h0.1V37h3.2C101.9,37,101.9,56,101.9,61.5z M91.8,69.3c4,0,7-3.4,7-7.3
	c0-3.7-3-7.1-7-7.1c-4.3,0-7.3,3.4-7.3,7.2C84.5,66,87.6,69.3,91.8,69.3z"/>
</svg>
